<mxfile host="app.diagrams.net" agent="Mozilla/5.0 (Windows NT 10.0; Win64; x64) AppleWebKit/537.36 (KHTML, like Gecko) Chrome/136.0.0.0 Safari/537.36" version="27.0.6">
  <diagram name="第 1 页" id="38Xn-i2-2lLYXQscA6sv">
    <mxGraphModel dx="1426" dy="785" grid="1" gridSize="10" guides="1" tooltips="1" connect="1" arrows="1" fold="1" page="1" pageScale="1" pageWidth="827" pageHeight="1169" math="0" shadow="0">
      <root>
        <mxCell id="0" />
        <mxCell id="1" parent="0" />
        <mxCell id="FbEyN9LozqtYXsRdDisT-24" value="Config" style="swimlane;fontStyle=0;childLayout=stackLayout;horizontal=1;startSize=26;fillColor=none;horizontalStack=0;resizeParent=1;resizeParentMax=0;resizeLast=0;collapsible=1;marginBottom=0;whiteSpace=wrap;html=1;" parent="1" vertex="1">
          <mxGeometry x="572" y="90" width="160" height="78" as="geometry">
            <mxRectangle x="340" y="330" width="80" height="30" as="alternateBounds" />
          </mxGeometry>
        </mxCell>
        <mxCell id="FbEyN9LozqtYXsRdDisT-25" value="+ ServerEntryPath: string" style="text;strokeColor=none;fillColor=none;align=left;verticalAlign=top;spacingLeft=4;spacingRight=4;overflow=hidden;rotatable=0;points=[[0,0.5],[1,0.5]];portConstraint=eastwest;whiteSpace=wrap;html=1;" parent="FbEyN9LozqtYXsRdDisT-24" vertex="1">
          <mxGeometry y="26" width="160" height="26" as="geometry" />
        </mxCell>
        <mxCell id="FbEyN9LozqtYXsRdDisT-34" value="+ ServerBundlePath: string" style="text;strokeColor=none;fillColor=none;align=left;verticalAlign=top;spacingLeft=4;spacingRight=4;overflow=hidden;rotatable=0;points=[[0,0.5],[1,0.5]];portConstraint=eastwest;whiteSpace=wrap;html=1;" parent="FbEyN9LozqtYXsRdDisT-24" vertex="1">
          <mxGeometry y="52" width="160" height="26" as="geometry" />
        </mxCell>
        <mxCell id="17jYzTJ7P02LbTuSrVfu-1" value="Route" style="swimlane;fontStyle=0;childLayout=stackLayout;horizontal=1;startSize=26;fillColor=none;horizontalStack=0;resizeParent=1;resizeParentMax=0;resizeLast=0;collapsible=1;marginBottom=0;whiteSpace=wrap;html=1;" vertex="1" parent="1">
          <mxGeometry x="572" y="601" width="140" height="104" as="geometry" />
        </mxCell>
        <mxCell id="17jYzTJ7P02LbTuSrVfu-2" value="+ Layout: VNode" style="text;strokeColor=none;fillColor=none;align=left;verticalAlign=top;spacingLeft=4;spacingRight=4;overflow=hidden;rotatable=0;points=[[0,0.5],[1,0.5]];portConstraint=eastwest;whiteSpace=wrap;html=1;" vertex="1" parent="17jYzTJ7P02LbTuSrVfu-1">
          <mxGeometry y="26" width="140" height="26" as="geometry" />
        </mxCell>
        <mxCell id="17jYzTJ7P02LbTuSrVfu-3" value="+ App: VNode" style="text;strokeColor=none;fillColor=none;align=left;verticalAlign=top;spacingLeft=4;spacingRight=4;overflow=hidden;rotatable=0;points=[[0,0.5],[1,0.5]];portConstraint=eastwest;whiteSpace=wrap;html=1;" vertex="1" parent="17jYzTJ7P02LbTuSrVfu-1">
          <mxGeometry y="52" width="140" height="26" as="geometry" />
        </mxCell>
        <mxCell id="17jYzTJ7P02LbTuSrVfu-4" value="+ FeRoutes: FeRoute[]" style="text;strokeColor=none;fillColor=none;align=left;verticalAlign=top;spacingLeft=4;spacingRight=4;overflow=hidden;rotatable=0;points=[[0,0.5],[1,0.5]];portConstraint=eastwest;whiteSpace=wrap;html=1;" vertex="1" parent="17jYzTJ7P02LbTuSrVfu-1">
          <mxGeometry y="78" width="140" height="26" as="geometry" />
        </mxCell>
        <mxCell id="17jYzTJ7P02LbTuSrVfu-8" value="&lt;p style=&quot;margin:0px;margin-top:4px;text-align:center;&quot;&gt;&lt;i&gt;&amp;lt;&amp;lt;Interface&amp;gt;&amp;gt;&lt;/i&gt;&lt;br&gt;&lt;b&gt;ServerEntry&lt;/b&gt;&lt;/p&gt;&lt;hr size=&quot;1&quot; style=&quot;border-style:solid;&quot;&gt;&lt;p style=&quot;margin:0px;margin-left:4px;&quot;&gt;+ Route: Route&lt;/p&gt;&lt;hr size=&quot;1&quot; style=&quot;border-style:solid;&quot;&gt;&lt;p style=&quot;margin:0px;margin-left:4px;&quot;&gt;+ ServerRender:&amp;nbsp; (ctx: ISSRContext, config: Config) =&amp;gt;&amp;nbsp;&lt;span style=&quot;text-align: center; background-color: transparent; color: light-dark(rgb(0, 0, 0), rgb(255, 255, 255));&quot;&gt;ServerRenderResult&lt;/span&gt;&lt;/p&gt;" style="verticalAlign=top;align=left;overflow=fill;html=1;whiteSpace=wrap;" vertex="1" parent="1">
          <mxGeometry x="76" y="429" width="420" height="90" as="geometry" />
        </mxCell>
        <mxCell id="17jYzTJ7P02LbTuSrVfu-9" value="ServerRenderResult" style="swimlane;fontStyle=0;childLayout=stackLayout;horizontal=1;startSize=26;fillColor=none;horizontalStack=0;resizeParent=1;resizeParentMax=0;resizeLast=0;collapsible=1;marginBottom=0;whiteSpace=wrap;html=1;" vertex="1" parent="1">
          <mxGeometry x="572" y="435" width="180" height="78" as="geometry" />
        </mxCell>
        <mxCell id="17jYzTJ7P02LbTuSrVfu-10" value="+ Html: string" style="text;strokeColor=none;fillColor=none;align=left;verticalAlign=top;spacingLeft=4;spacingRight=4;overflow=hidden;rotatable=0;points=[[0,0.5],[1,0.5]];portConstraint=eastwest;whiteSpace=wrap;html=1;" vertex="1" parent="17jYzTJ7P02LbTuSrVfu-9">
          <mxGeometry y="26" width="180" height="26" as="geometry" />
        </mxCell>
        <mxCell id="17jYzTJ7P02LbTuSrVfu-11" value="+ TeleportsContext: Record" style="text;strokeColor=none;fillColor=none;align=left;verticalAlign=top;spacingLeft=4;spacingRight=4;overflow=hidden;rotatable=0;points=[[0,0.5],[1,0.5]];portConstraint=eastwest;whiteSpace=wrap;html=1;" vertex="1" parent="17jYzTJ7P02LbTuSrVfu-9">
          <mxGeometry y="52" width="180" height="26" as="geometry" />
        </mxCell>
        <mxCell id="17jYzTJ7P02LbTuSrVfu-14" value="PluginVue3" style="swimlane;fontStyle=1;align=center;verticalAlign=top;childLayout=stackLayout;horizontal=1;startSize=26;horizontalStack=0;resizeParent=1;resizeParentMax=0;resizeLast=0;collapsible=1;marginBottom=0;whiteSpace=wrap;html=1;" vertex="1" parent="1">
          <mxGeometry x="106" y="289" width="160" height="34" as="geometry" />
        </mxCell>
        <mxCell id="17jYzTJ7P02LbTuSrVfu-18" value="" style="endArrow=block;dashed=1;endFill=0;endSize=12;html=1;rounded=0;exitX=0.5;exitY=1;exitDx=0;exitDy=0;entryX=0.486;entryY=0.022;entryDx=0;entryDy=0;entryPerimeter=0;" edge="1" parent="1" source="17jYzTJ7P02LbTuSrVfu-14" target="17jYzTJ7P02LbTuSrVfu-8">
          <mxGeometry width="160" relative="1" as="geometry">
            <mxPoint x="356" y="229" as="sourcePoint" />
            <mxPoint x="516" y="229" as="targetPoint" />
          </mxGeometry>
        </mxCell>
        <mxCell id="17jYzTJ7P02LbTuSrVfu-19" value="PluginReact" style="swimlane;fontStyle=1;align=center;verticalAlign=top;childLayout=stackLayout;horizontal=1;startSize=26;horizontalStack=0;resizeParent=1;resizeParentMax=0;resizeLast=0;collapsible=1;marginBottom=0;whiteSpace=wrap;html=1;" vertex="1" parent="1">
          <mxGeometry x="306" y="289" width="160" height="34" as="geometry" />
        </mxCell>
        <mxCell id="17jYzTJ7P02LbTuSrVfu-20" value="" style="endArrow=block;dashed=1;endFill=0;endSize=12;html=1;rounded=0;exitX=0.5;exitY=1;exitDx=0;exitDy=0;entryX=0.5;entryY=0;entryDx=0;entryDy=0;" edge="1" parent="1" source="17jYzTJ7P02LbTuSrVfu-19" target="17jYzTJ7P02LbTuSrVfu-8">
          <mxGeometry width="160" relative="1" as="geometry">
            <mxPoint x="356" y="229" as="sourcePoint" />
            <mxPoint x="516" y="229" as="targetPoint" />
          </mxGeometry>
        </mxCell>
        <mxCell id="17jYzTJ7P02LbTuSrVfu-22" value="" style="endArrow=diamondThin;endFill=0;endSize=24;html=1;rounded=0;entryX=0.5;entryY=1;entryDx=0;entryDy=0;exitX=0.5;exitY=0;exitDx=0;exitDy=0;" edge="1" parent="1" source="17jYzTJ7P02LbTuSrVfu-24" target="17jYzTJ7P02LbTuSrVfu-8">
          <mxGeometry width="160" relative="1" as="geometry">
            <mxPoint x="286" y="609" as="sourcePoint" />
            <mxPoint x="516" y="729" as="targetPoint" />
          </mxGeometry>
        </mxCell>
        <mxCell id="17jYzTJ7P02LbTuSrVfu-24" value="VueServerRenderer" style="swimlane;fontStyle=1;align=center;verticalAlign=top;childLayout=stackLayout;horizontal=1;startSize=26;horizontalStack=0;resizeParent=1;resizeParentMax=0;resizeLast=0;collapsible=1;marginBottom=0;whiteSpace=wrap;html=1;" vertex="1" parent="1">
          <mxGeometry x="76" y="619" width="200" height="86" as="geometry" />
        </mxCell>
        <mxCell id="17jYzTJ7P02LbTuSrVfu-26" value="" style="line;strokeWidth=1;fillColor=none;align=left;verticalAlign=middle;spacingTop=-1;spacingLeft=3;spacingRight=3;rotatable=0;labelPosition=right;points=[];portConstraint=eastwest;strokeColor=inherit;" vertex="1" parent="17jYzTJ7P02LbTuSrVfu-24">
          <mxGeometry y="26" width="200" height="8" as="geometry" />
        </mxCell>
        <mxCell id="17jYzTJ7P02LbTuSrVfu-27" value="+ RenderToStream: () =&amp;gt; Readable" style="text;strokeColor=none;fillColor=none;align=left;verticalAlign=top;spacingLeft=4;spacingRight=4;overflow=hidden;rotatable=0;points=[[0,0.5],[1,0.5]];portConstraint=eastwest;whiteSpace=wrap;html=1;" vertex="1" parent="17jYzTJ7P02LbTuSrVfu-24">
          <mxGeometry y="34" width="200" height="26" as="geometry" />
        </mxCell>
        <mxCell id="17jYzTJ7P02LbTuSrVfu-28" value="+ RenderToString: () =&amp;gt; string" style="text;strokeColor=none;fillColor=none;align=left;verticalAlign=top;spacingLeft=4;spacingRight=4;overflow=hidden;rotatable=0;points=[[0,0.5],[1,0.5]];portConstraint=eastwest;whiteSpace=wrap;html=1;" vertex="1" parent="17jYzTJ7P02LbTuSrVfu-24">
          <mxGeometry y="60" width="200" height="26" as="geometry" />
        </mxCell>
        <mxCell id="17jYzTJ7P02LbTuSrVfu-29" value="Normalize" style="swimlane;fontStyle=1;align=center;verticalAlign=top;childLayout=stackLayout;horizontal=1;startSize=26;horizontalStack=0;resizeParent=1;resizeParentMax=0;resizeLast=0;collapsible=1;marginBottom=0;whiteSpace=wrap;html=1;" vertex="1" parent="1">
          <mxGeometry x="326" y="619" width="170" height="60" as="geometry" />
        </mxCell>
        <mxCell id="17jYzTJ7P02LbTuSrVfu-31" value="" style="line;strokeWidth=1;fillColor=none;align=left;verticalAlign=middle;spacingTop=-1;spacingLeft=3;spacingRight=3;rotatable=0;labelPosition=right;points=[];portConstraint=eastwest;strokeColor=inherit;" vertex="1" parent="17jYzTJ7P02LbTuSrVfu-29">
          <mxGeometry y="26" width="170" height="8" as="geometry" />
        </mxCell>
        <mxCell id="17jYzTJ7P02LbTuSrVfu-32" value="+ CombineRoute: () =&amp;gt; Route" style="text;strokeColor=none;fillColor=none;align=left;verticalAlign=top;spacingLeft=4;spacingRight=4;overflow=hidden;rotatable=0;points=[[0,0.5],[1,0.5]];portConstraint=eastwest;whiteSpace=wrap;html=1;" vertex="1" parent="17jYzTJ7P02LbTuSrVfu-29">
          <mxGeometry y="34" width="170" height="26" as="geometry" />
        </mxCell>
        <mxCell id="17jYzTJ7P02LbTuSrVfu-33" value="" style="endArrow=diamondThin;endFill=0;endSize=24;html=1;rounded=0;exitX=0.5;exitY=0;exitDx=0;exitDy=0;" edge="1" parent="1" source="17jYzTJ7P02LbTuSrVfu-29">
          <mxGeometry width="160" relative="1" as="geometry">
            <mxPoint x="356" y="629" as="sourcePoint" />
            <mxPoint x="286" y="519" as="targetPoint" />
          </mxGeometry>
        </mxCell>
        <mxCell id="17jYzTJ7P02LbTuSrVfu-34" value="SSR" style="swimlane;fontStyle=0;childLayout=stackLayout;horizontal=1;startSize=26;fillColor=none;horizontalStack=0;resizeParent=1;resizeParentMax=0;resizeLast=0;collapsible=1;marginBottom=0;whiteSpace=wrap;html=1;" vertex="1" parent="1">
          <mxGeometry x="181" y="99" width="210" height="60" as="geometry" />
        </mxCell>
        <mxCell id="17jYzTJ7P02LbTuSrVfu-38" value="" style="line;strokeWidth=1;fillColor=none;align=left;verticalAlign=middle;spacingTop=-1;spacingLeft=3;spacingRight=3;rotatable=0;labelPosition=right;points=[];portConstraint=eastwest;strokeColor=inherit;" vertex="1" parent="17jYzTJ7P02LbTuSrVfu-34">
          <mxGeometry y="26" width="210" height="8" as="geometry" />
        </mxCell>
        <mxCell id="17jYzTJ7P02LbTuSrVfu-39" value="+ Render: () =&amp;gt;&amp;nbsp;&lt;span style=&quot;text-align: center;&quot;&gt;ServerRenderResult&lt;/span&gt;" style="text;strokeColor=none;fillColor=none;align=left;verticalAlign=top;spacingLeft=4;spacingRight=4;overflow=hidden;rotatable=0;points=[[0,0.5],[1,0.5]];portConstraint=eastwest;whiteSpace=wrap;html=1;" vertex="1" parent="17jYzTJ7P02LbTuSrVfu-34">
          <mxGeometry y="34" width="210" height="26" as="geometry" />
        </mxCell>
        <mxCell id="17jYzTJ7P02LbTuSrVfu-40" value="" style="endArrow=diamondThin;endFill=0;endSize=24;html=1;rounded=0;entryX=0.49;entryY=1;entryDx=0;entryDy=0;entryPerimeter=0;exitX=0.5;exitY=0;exitDx=0;exitDy=0;" edge="1" parent="1" source="17jYzTJ7P02LbTuSrVfu-14" target="17jYzTJ7P02LbTuSrVfu-39">
          <mxGeometry width="160" relative="1" as="geometry">
            <mxPoint x="356" y="329" as="sourcePoint" />
            <mxPoint x="516" y="329" as="targetPoint" />
          </mxGeometry>
        </mxCell>
        <mxCell id="17jYzTJ7P02LbTuSrVfu-41" value="" style="endArrow=diamondThin;endFill=0;endSize=24;html=1;rounded=0;entryX=0.495;entryY=1;entryDx=0;entryDy=0;entryPerimeter=0;exitX=0.5;exitY=0;exitDx=0;exitDy=0;" edge="1" parent="1" source="17jYzTJ7P02LbTuSrVfu-19" target="17jYzTJ7P02LbTuSrVfu-39">
          <mxGeometry width="160" relative="1" as="geometry">
            <mxPoint x="356" y="329" as="sourcePoint" />
            <mxPoint x="516" y="329" as="targetPoint" />
          </mxGeometry>
        </mxCell>
        <mxCell id="17jYzTJ7P02LbTuSrVfu-42" value="" style="endArrow=diamondThin;endFill=0;endSize=24;html=1;rounded=0;exitX=0;exitY=0.5;exitDx=0;exitDy=0;entryX=1;entryY=0.5;entryDx=0;entryDy=0;" edge="1" parent="1" source="FbEyN9LozqtYXsRdDisT-25" target="17jYzTJ7P02LbTuSrVfu-34">
          <mxGeometry width="160" relative="1" as="geometry">
            <mxPoint x="632" y="129" as="sourcePoint" />
            <mxPoint x="402" y="129" as="targetPoint" />
          </mxGeometry>
        </mxCell>
        <mxCell id="17jYzTJ7P02LbTuSrVfu-43" value="" style="endArrow=diamondThin;endFill=0;endSize=24;html=1;rounded=0;exitX=0;exitY=0.5;exitDx=0;exitDy=0;entryX=1;entryY=0.5;entryDx=0;entryDy=0;" edge="1" parent="1" source="17jYzTJ7P02LbTuSrVfu-3" target="17jYzTJ7P02LbTuSrVfu-32">
          <mxGeometry width="160" relative="1" as="geometry">
            <mxPoint x="202" y="529" as="sourcePoint" />
            <mxPoint x="362" y="529" as="targetPoint" />
          </mxGeometry>
        </mxCell>
        <mxCell id="17jYzTJ7P02LbTuSrVfu-44" value="" style="endArrow=diamondThin;endFill=1;endSize=24;html=1;rounded=0;entryX=1;entryY=0.5;entryDx=0;entryDy=0;exitX=0;exitY=0.5;exitDx=0;exitDy=0;" edge="1" parent="1" source="17jYzTJ7P02LbTuSrVfu-10" target="17jYzTJ7P02LbTuSrVfu-8">
          <mxGeometry width="160" relative="1" as="geometry">
            <mxPoint x="232" y="529" as="sourcePoint" />
            <mxPoint x="392" y="529" as="targetPoint" />
          </mxGeometry>
        </mxCell>
      </root>
    </mxGraphModel>
  </diagram>
</mxfile>
